<svg xmlns="http://www.w3.org/2000/svg" width="48" height="48" fill="none"><rect width="48" height="48" fill="#1C1D20" rx="10"/><g fill="#FAFAFA"><path d="m36.72 23.053.124-2.623-2.291 1.427-.711-1.179 2.433-1.196-2.433-1.196.71-1.195 2.292 1.426-.125-2.622h1.404l-.125 2.622 2.291-1.426.71 1.195-2.432 1.196L41 20.678l-.71 1.179-2.292-1.427.125 2.623h-1.404ZM31.55 18.803v1.505h-5.76v-1.505h5.76Zm-4.19 9.618V17.684c0-.596.14-1.092.42-1.488.286-.402.657-.7 1.114-.895.462-.2.958-.301 1.488-.301.408 0 .755.031 1.04.095.287.063.497.117.63.163l-.474 1.514a5.215 5.215 0 0 0-.356-.094 2.27 2.27 0 0 0-.53-.052c-.48 0-.827.115-1.04.344-.213.224-.32.55-.32.98v10.471H27.36Z"/><path d="M26.182 18.803v1.505h-5.76v-1.505h5.76Zm-4.19 9.618V17.684c0-.596.14-1.092.42-1.488.286-.402.657-.7 1.113-.895.463-.2.959-.301 1.489-.301.407 0 .754.031 1.04.095.286.063.496.117.63.163l-.475 1.514a5.21 5.21 0 0 0-.355-.094 2.27 2.27 0 0 0-.53-.052c-.48 0-.828.115-1.04.344-.214.224-.32.55-.32.98v10.471H21.99ZM16.186 28.421c-.967 0-1.804-.202-2.51-.605a4.112 4.112 0 0 1-1.636-1.704c-.378-.739-.566-1.6-.566-2.582 0-.977.185-1.838.557-2.582a4.231 4.231 0 0 1 1.582-1.739c.684-.42 1.486-.63 2.405-.63.56 0 1.102.088 1.627.264.524.176.996.455 1.414.835.419.38.749.875.99 1.483.248.608.372 1.34.372 2.198v.665h-7.86v-1.389h6.87l-.893.46c0-.585-.095-1.102-.283-1.55a2.282 2.282 0 0 0-.849-1.049c-.371-.255-.834-.383-1.388-.383-.554 0-1.029.128-1.423.383a2.52 2.52 0 0 0-.893 1.014c-.207.42-.31.88-.31 1.38v.947c0 .653.118 1.207.354 1.661.236.455.563.801.981 1.04.425.238.917.358 1.477.358.365 0 .695-.051.99-.154.3-.102.56-.255.778-.46.218-.204.383-.457.495-.758l1.821.332c-.147.511-.406.96-.778 1.346a3.79 3.79 0 0 1-1.405.904c-.56.21-1.2.315-1.919.315ZM8.529 18.725h1.815v10.293c.005.646-.107 1.19-.336 1.634-.23.443-.566.778-1.008 1.002-.443.23-.986.346-1.63.346H7v-1.616h.294c.437 0 .75-.118.941-.355.19-.236.288-.576.294-1.02V18.726Zm.899-1.487c-.32 0-.59-.109-.815-.328a1.06 1.06 0 0 1-.336-.787c0-.31.112-.576.336-.795.224-.218.496-.328.815-.328.314 0 .582.11.806.328.23.22.345.484.345.796 0 .305-.115.567-.345.786a1.113 1.113 0 0 1-.806.328Z"/></g></svg>