<svg xmlns="http://www.w3.org/2000/svg" width="48" height="48" fill="none"><rect width="48" height="48" fill="#1C1D20" rx="10"/><path fill="#FAFAFA" d="M18.648 31.195c-.826 0-1.569-.146-2.226-.44a3.666 3.666 0 0 1-1.563-1.308c-.384-.573-.576-1.27-.576-2.09v-.283h2.178v.283c0 .398.091.746.273 1.045.19.3.446.53.772.694.332.156.713.234 1.142.234.463 0 .857-.098 1.182-.293.326-.195.573-.482.742-.86.17-.383.254-.852.254-1.405V16.448h2.178v10.322c0 .931-.18 1.729-.537 2.393a3.625 3.625 0 0 1-1.504 1.514c-.651.345-1.423.517-2.315.517Zm9.151-6.562.137-2.998-2.52 1.63-.78-1.347 2.675-1.367-2.676-1.367.781-1.368 2.52 1.631-.137-2.998h1.543l-.136 2.998 2.519-1.63.781 1.367-2.675 1.367 2.675 1.367-.781 1.348-2.52-1.631.137 2.998H27.8Z"/></svg>