<svg aria-hidden="true" style="position: absolute; width: 0; height: 0; overflow: hidden;" version="1.1" xmlns="http://www.w3.org/2000/svg" xmlns:xlink="http://www.w3.org/1999/xlink">
<defs>
<symbol id="icon-jefferson" viewBox="0 0 141 32">
<path fill="#fafafa" style="fill: var(--color1, #fafafa)" d="M133.416 15.158l0.234-4.935-4.313 2.683-1.337-2.218 4.581-2.25-4.581-2.252 1.337-2.25 4.312 2.685-0.231-4.936h2.641l-0.234 4.935 4.313-2.683 1.336 2.25-4.581 2.252 4.581 2.25-1.337 2.218-4.312-2.685 0.231 4.936h-2.641zM112.987 14.412v10.851h-3.513v-18.297h3.416v3.011h0.244c0.403-0.982 1.071-1.787 1.916-2.346l0.019-0.012c0.877-0.589 2.004-0.883 3.382-0.883 1.236 0 2.316 0.261 3.237 0.785 0.933 0.514 1.654 1.283 2.164 2.307 0.519 1.027 0.78 2.297 0.78 3.815v11.619h-3.513v-11.195c0-1.32-0.347-2.356-1.041-3.109-0.694-0.763-1.637-1.145-2.829-1.145-0.813 0-1.546 0.185-2.196 0.556-0.645 0.369-1.16 0.898-1.502 1.534l-0.010 0.021c-0.369 0.677-0.552 1.506-0.552 2.488zM99.36 25.263c-1.689 0-3.17-0.386-4.44-1.155-1.26-0.77-2.24-1.849-2.939-3.24-0.691-1.389-1.034-3.005-1.034-4.844 0-1.859 0.345-3.486 1.034-4.876 0.699-1.401 1.679-2.486 2.939-3.256 1.27-0.77 2.75-1.155 4.44-1.155 1.701 0 3.181 0.386 4.441 1.155s2.24 1.854 2.939 3.256c0.699 1.389 1.049 3.015 1.049 4.876 0 1.839-0.35 3.454-1.049 4.845-0.701 1.389-1.679 2.469-2.939 3.239s-2.74 1.155-4.441 1.155zM99.36 22.328c1.11 0 2.024-0.288 2.745-0.866s1.255-1.342 1.6-2.294c0.354-0.963 0.532-2.011 0.532-3.144 0-1.154-0.179-2.213-0.534-3.175-0.344-0.963-0.876-1.733-1.598-2.311-0.721-0.578-1.635-0.866-2.745-0.866-1.098 0-2.008 0.288-2.728 0.866-0.711 0.578-1.243 1.347-1.6 2.311-0.354 0.962-0.532 2.021-0.532 3.175 0 1.133 0.179 2.183 0.534 3.144 0.354 0.952 0.888 1.716 1.598 2.294 0.721 0.578 1.63 0.866 2.728 0.866zM88.896 11.357l-3.289 0.546c-0.211-0.6-0.606-1.15-1.184-1.652-0.568-0.504-1.42-0.755-2.555-0.755-1.024 0-1.881 0.224-2.57 0.674-0.68 0.438-1.019 1-1.019 1.684 0 0.6 0.227 1.086 0.684 1.46 0.468 0.374 1.208 0.674 2.221 0.898l2.988 0.642c1.701 0.374 2.978 0.962 3.823 1.765 0.845 0.802 1.268 1.827 1.268 3.079 0 1.080-0.323 2.043-0.968 2.887-0.645 0.835-1.541 1.492-2.688 1.974-1.145 0.472-2.471 0.706-3.973 0.706-2.092 0-3.795-0.433-5.108-1.299-1.314-0.867-2.12-2.085-2.42-3.658l3.49-0.514c0.222 0.877 0.674 1.541 1.351 1.989 0.691 0.45 1.581 0.674 2.671 0.674 1.179 0 2.125-0.241 2.838-0.721 0.724-0.482 1.086-1.064 1.086-1.748 0-1.133-0.879-1.898-2.637-2.294l-3.156-0.674c-1.747-0.386-3.038-0.99-3.874-1.812-0.822-0.835-1.235-1.883-1.235-3.144 0-1.059 0.307-1.989 0.918-2.791 0.623-0.802 1.475-1.423 2.555-1.861 1.090-0.45 2.331-0.674 3.722-0.674 2.026 0 3.613 0.421 4.758 1.267 1.116 0.806 1.934 1.964 2.294 3.31l0.010 0.042zM64 25.263v-18.265h3.537v2.925h0.204c0.344-0.975 0.985-1.775 1.811-2.31l0.018-0.011c0.819-0.543 1.826-0.866 2.907-0.866 0.025 0 0.050 0 0.074 0l-0.004-0c0.226 0 0.492 0.010 0.797 0.034 0.315 0.010 0.569 0.027 0.761 0.049v3.397c-0.226-0.057-0.497-0.103-0.774-0.128l-0.021-0.002c-0.34-0.043-0.735-0.067-1.135-0.067h-0.001c-0.869 0-1.647 0.18-2.336 0.539-0.665 0.341-1.208 0.835-1.597 1.439l-0.010 0.016c-0.362 0.581-0.577 1.287-0.577 2.042 0 0.029 0 0.057 0.001 0.086l-0-0.004v11.126h-3.656zM54.344 25.263c-1.819 0-3.395-0.379-4.728-1.139-1.321-0.757-2.373-1.85-3.058-3.166l-0.020-0.043c-0.709-1.389-1.064-3.010-1.064-4.861 0-1.839 0.349-3.459 1.048-4.859 0.682-1.366 1.7-2.477 2.947-3.253l0.034-0.020c1.287-0.792 2.796-1.187 4.525-1.187 1.054 0 2.075 0.165 3.062 0.497 1.033 0.353 1.921 0.89 2.668 1.578l-0.005-0.005c0.788 0.716 1.41 1.645 1.864 2.791 0.467 1.145 0.699 2.523 0.699 4.138v1.251h-14.796v-2.616h12.931l-1.681 0.867c0-1.101-0.177-2.075-0.532-2.92-0.334-0.818-0.885-1.49-1.583-1.963l-0.015-0.010c-0.699-0.482-1.57-0.723-2.611-0.723-1.044 0-1.937 0.241-2.681 0.723-0.721 0.474-1.294 1.12-1.668 1.88l-0.012 0.028c-0.387 0.792-0.583 1.657-0.583 2.599v1.78c0 1.229 0.222 2.274 0.667 3.128 0.443 0.856 1.059 1.509 1.846 1.957 0.8 0.45 1.726 0.674 2.779 0.674 0.689 0 1.31-0.096 1.864-0.288 0.566-0.194 1.054-0.482 1.465-0.866 0.408-0.388 0.726-0.866 0.923-1.403l0.008-0.026 3.429 0.625c-0.289 0.992-0.795 1.845-1.467 2.536l0.001-0.001c-0.699 0.728-1.58 1.293-2.644 1.701-1.056 0.396-2.259 0.593-3.613 0.593zM46.213 7.158v2.835h-10.845v-2.835h10.845zM38.324 25.263v-20.211c0-1.123 0.264-2.056 0.792-2.801 0.525-0.741 1.235-1.318 2.063-1.672l0.032-0.012c0.812-0.359 1.758-0.568 2.753-0.568 0.017 0 0.035 0 0.052 0h-0.003c0.766 0 1.42 0.059 1.959 0.179 0.539 0.118 0.933 0.221 1.186 0.307l-0.893 2.851c-0.152-0.050-0.377-0.112-0.605-0.165l-0.067-0.013c-0.274-0.063-0.589-0.099-0.912-0.099-0.029 0-0.059 0-0.088 0.001l0.004-0c-0.906 0-1.56 0.217-1.96 0.648-0.401 0.421-0.601 1.036-0.601 1.846v19.709h-3.712z"></path>
<path fill="#fafafa" style="fill: var(--color1, #fafafa)" d="M36.108 7.158v2.835h-10.845v-2.835h10.845zM28.219 25.263v-20.211c0-1.123 0.264-2.056 0.792-2.801 0.525-0.741 1.235-1.318 2.064-1.672l0.032-0.012c0.812-0.359 1.758-0.568 2.753-0.568 0.017 0 0.035 0 0.052 0h-0.003c0.766 0 1.42 0.059 1.959 0.179 0.539 0.118 0.933 0.221 1.186 0.307l-0.893 2.851c-0.152-0.050-0.377-0.112-0.605-0.165l-0.067-0.013c-0.274-0.063-0.589-0.099-0.912-0.099-0.029 0-0.059 0-0.088 0.001l0.004-0c-0.906 0-1.56 0.217-1.96 0.648-0.401 0.421-0.601 1.036-0.601 1.846v19.709h-3.712zM17.292 25.263c-1.819 0-3.395-0.379-4.728-1.139-1.321-0.757-2.373-1.85-3.058-3.166l-0.020-0.043c-0.709-1.389-1.064-3.010-1.064-4.861 0-1.839 0.35-3.459 1.049-4.859 0.681-1.366 1.697-2.477 2.942-3.253l0.034-0.020c1.288-0.792 2.797-1.187 4.531-1.187 1.054 0 2.075 0.165 3.062 0.497 1.033 0.353 1.921 0.89 2.668 1.578l-0.005-0.005c0.788 0.716 1.41 1.645 1.864 2.791 0.467 1.145 0.699 2.523 0.699 4.138v1.251h-14.797v-2.616h12.931l-1.681 0.867c0-1.101-0.177-2.075-0.532-2.92-0.334-0.818-0.885-1.49-1.583-1.963l-0.015-0.010c-0.699-0.482-1.57-0.723-2.611-0.723-1.044 0-1.937 0.241-2.681 0.723-0.721 0.474-1.294 1.12-1.668 1.88l-0.012 0.028c-0.387 0.792-0.583 1.657-0.583 2.599v1.78c0 1.229 0.222 2.274 0.667 3.128 0.443 0.856 1.059 1.509 1.846 1.957 0.8 0.45 1.726 0.674 2.779 0.674 0.689 0 1.31-0.096 1.864-0.288 0.566-0.194 1.054-0.482 1.465-0.866 0.408-0.388 0.726-0.866 0.923-1.403l0.008-0.026 3.429 0.625c-0.289 0.992-0.795 1.845-1.467 2.536l0.001-0.001c-0.699 0.728-1.58 1.293-2.644 1.701-1.056 0.396-2.26 0.593-3.613 0.593zM2.878 7.011h3.416v19.377c0.010 1.213-0.2 2.24-0.633 3.074-0.421 0.819-1.074 1.469-1.872 1.875l-0.024 0.011c-0.834 0.436-1.856 0.652-3.069 0.652h-0.696v-3.042h0.554c0.822 0 1.411-0.222 1.77-0.667s0.544-1.085 0.554-1.92v-19.36zM4.571 4.214c-0.601 0-1.112-0.207-1.534-0.618-0.39-0.365-0.633-0.884-0.633-1.459 0-0.008 0-0.016 0-0.024v0.001c0-0.584 0.211-1.083 0.633-1.496 0.421-0.413 0.933-0.618 1.533-0.618 0.591 0 1.098 0.205 1.519 0.618 0.433 0.413 0.648 0.911 0.648 1.497 0 0.574-0.216 1.068-0.648 1.48-0.421 0.411-0.926 0.618-1.517 0.618z"></path>
</symbol>
<symbol id="icon-menu-burger" viewBox="0 0 32 32">
<path fill="none" stroke="#fafafa" style="stroke: var(--color1, #fafafa)" stroke-linejoin="round" stroke-linecap="round" stroke-miterlimit="4" stroke-width="2.2857" d="M4 11.334h24M4 20.666h24"></path>
</symbol>
<symbol id="icon-x" viewBox="0 0 32 32">
<path fill="none" stroke="#fafafa" style="stroke: var(--color1, #fafafa)" stroke-linejoin="round" stroke-linecap="round" stroke-miterlimit="4" stroke-width="2.2857" d="M24 8l-16 16M8 8l16 16"></path>
</symbol>
<symbol id="icon-arrow-up" viewBox="0 0 32 32">
<path fill="none" stroke="#fafafa" style="stroke: var(--color1, #fafafa)" stroke-linejoin="miter" stroke-linecap="butt" stroke-miterlimit="4" stroke-width="3.5556" d="M24 20l-8-8-8 8"></path>
</symbol>
<symbol id="icon-arrow-down" viewBox="0 0 32 32">
<path fill="none" stroke="#fafafa" style="stroke: var(--color1, #fafafa)" stroke-linejoin="miter" stroke-linecap="butt" stroke-miterlimit="4" stroke-width="3.5556" d="M8 12l8 8 8-8"></path>
</symbol>
<symbol id="icon-arrow-narrow-left-dark" viewBox="0 0 33 32">
<path  stroke-linejoin="round" stroke-linecap="round" stroke-miterlimit="4" stroke-width="2.6667" d="M27.333 16h-21.333M14 24l-8-8 8-8"></path>
</symbol>
<symbol id="icon-arrow-narrow-right" viewBox="0 0 33 32">
<path  stroke-linejoin="round" stroke-linecap="round" stroke-miterlimit="4" stroke-width="2.6667" d="M6 16h21.333M19.333 8l8 8-8 8"></path>
</symbol>
<symbol id="icon-user" viewBox="0 0 32 32">
<path fill="none" stroke="#fafafa" style="stroke: var(--color1, #fafafa)" stroke-linejoin="round" stroke-linecap="round" stroke-miterlimit="4" stroke-width="2.6667" d="M26.667 28c0-1.861 0-2.791-0.229-3.548-0.529-1.708-1.848-3.026-3.518-3.546l-0.038-0.010c-0.757-0.229-1.687-0.229-3.548-0.229h-6.667c-1.861 0-2.791 0-3.548 0.229-1.708 0.529-3.027 1.848-3.546 3.518l-0.010 0.038c-0.229 0.757-0.229 1.687-0.229 3.548M16 16c3.314 0 6-2.686 6-6s-2.686-6-6-6v0c-3.314 0-6 2.686-6 6s2.686 6 6 6v0z"></path>
</symbol>
<symbol id="icon-brush" viewBox="0 0 32 32">
<path fill="none" stroke="#fafafa" style="stroke: var(--color1, #fafafa)" stroke-linejoin="round" stroke-linecap="round" stroke-miterlimit="4" stroke-width="2.6667" d="M17.037 20l-5.037-5.037M2.667 29.333c2.667 0 6.144 0.456 7.967-1.367 0.845-0.845 1.367-2.011 1.367-3.3 0-2.577-2.089-4.667-4.667-4.667-1.289 0-2.455 0.522-3.3 1.367v0c-1.823 1.823 0 5.3-1.367 7.967z"></path>
<path fill="none" stroke="#fafafa" style="stroke: var(--color1, #fafafa)" stroke-linejoin="round" stroke-linecap="round" stroke-miterlimit="4" stroke-width="2.6667" d="M10.667 21.333c-0.655-0.656-0.983-0.983-1.168-1.327-0.201-0.366-0.32-0.802-0.32-1.267 0-0.5 0.138-0.968 0.377-1.368l-0.007 0.012c0.197-0.336 0.537-0.651 1.217-1.28l13.157-12.183c0.525-0.495 1.234-0.799 2.014-0.799 1.623 0 2.939 1.316 2.939 2.939 0 0.78-0.304 1.489-0.8 2.015l0.001-0.001-12.183 13.159c-0.631 0.68-0.945 1.019-1.28 1.217-0.388 0.233-0.856 0.371-1.357 0.371-0.464 0-0.901-0.119-1.281-0.327l0.014 0.007c-0.343-0.185-0.671-0.513-1.325-1.168z"></path>
</symbol>
<symbol id="icon-message-chat-circle" viewBox="0 0 32 32">
<path fill="none" stroke="#fafafa" style="stroke: var(--color1, #fafafa)" stroke-linejoin="round" stroke-linecap="round" stroke-miterlimit="4" stroke-width="2.6667" d="M8.125 14.972c-0.080-0.49-0.125-1.056-0.125-1.631 0-0.003 0-0.005 0-0.008v0c0-5.891 4.807-10.667 10.737-10.667 5.929 0 10.736 4.776 10.736 10.667 0 1.331-0.245 2.605-0.693 3.78-0.093 0.243-0.14 0.365-0.16 0.46-0.019 0.077-0.031 0.166-0.032 0.258v0.001c-0.003 0.097 0.011 0.204 0.037 0.419l0.537 4.36c0.057 0.473 0.087 0.709 0.008 0.88-0.070 0.151-0.19 0.269-0.338 0.334l-0.004 0.002c-0.173 0.073-0.408 0.040-0.88-0.029l-4.245-0.623c-0.223-0.032-0.333-0.049-0.435-0.048-0.003-0-0.006-0-0.009-0-0.091 0-0.18 0.010-0.266 0.030l0.008-0.002c-0.099 0.021-0.225 0.068-0.477 0.163-1.128 0.432-2.433 0.683-3.796 0.683-0.575 0-1.14-0.045-1.692-0.13l0.061 0.008M10.176 29.333c3.953 0 7.157-3.283 7.157-7.333s-3.204-7.333-7.157-7.333c-3.953 0-7.159 3.283-7.159 7.333 0 0.813 0.129 1.597 0.369 2.329 0.1 0.309 0.151 0.464 0.168 0.569 0.017 0.111 0.020 0.173 0.013 0.284-0.007 0.107-0.033 0.227-0.087 0.468l-0.815 3.683 3.993-0.545c0.217-0.029 0.327-0.045 0.421-0.044 0.101 0 0.153 0.007 0.253 0.027 0.093 0.017 0.231 0.067 0.508 0.164 0.693 0.253 1.493 0.399 2.328 0.399 0.002 0 0.004 0 0.006 0h-0z"></path>
</symbol>
<symbol id="icon-hourglass" viewBox="0 0 32 32">
<path fill="none" stroke="#fafafa" style="stroke: var(--color1, #fafafa)" stroke-linejoin="round" stroke-linecap="round" stroke-miterlimit="4" stroke-width="2.6667" d="M24.217 2.667h-16.435c-0.616 0-1.116 0.5-1.116 1.116v0c0 0 0 0 0 0 0 3.7 1.5 7.050 3.924 9.474l1.627 1.627c0.16 0.16 0.241 0.241 0.299 0.32 0.165 0.219 0.264 0.496 0.264 0.797s-0.099 0.577-0.267 0.8l0.002-0.003c-0.095 0.116-0.193 0.221-0.297 0.318l-0.002 0.002-1.627 1.625c-2.424 2.425-3.924 5.775-3.924 9.474 0 0 0 0 0 0v-0c0 0.616 0.5 1.116 1.116 1.116h16.435c0.616 0 1.116-0.5 1.116-1.116v0c0-0 0-0 0-0 0-3.7-1.5-7.050-3.924-9.474l-1.627-1.627c-0.16-0.16-0.241-0.241-0.299-0.32-0.165-0.219-0.264-0.496-0.264-0.797s0.099-0.577 0.267-0.8l-0.002 0.003c0.057-0.077 0.137-0.157 0.299-0.32l1.627-1.625c2.424-2.425 3.924-5.775 3.924-9.474 0-0 0-0 0-0v0c0-0.616-0.5-1.116-1.116-1.116v0z"></path>
</symbol>
<symbol id="icon-arrow-about-me" viewBox="0 0 32 32">
<path fill="none" stroke-linejoin="miter" stroke-linecap="butt" stroke-miterlimit="4" stroke-width="3.5556" d="M8 12l8 8 8-8"></path>
</symbol>
<symbol id="icon-arrow-narrow-right-about-me" viewBox="0 0 33 32">
<path fill="none" stroke-linejoin="round" stroke-linecap="round" stroke-miterlimit="4" stroke-width="2.6667" d="M6 16h21.333M19.333 8l8 8-8 8"></path>
</symbol>
</defs>
</svg>
